<svg xmlns="http://www.w3.org/2000/svg" width="22" height="24"><path fill="none" fill-rule="evenodd" stroke="#FF3E00" stroke-width="3" d="M17.283 2.603a2.488 2.488 0 0 1 2.207.389A2.507 2.507 0 0 1 20.5 5v10.5c0 1.13-.522 2.173-1.418 2.92-.79.657-1.875 1.08-3.082 1.08-1.207 0-2.293-.423-3.082-1.08-.896-.747-1.418-1.79-1.418-2.92s.522-2.173 1.418-2.92a4.764 4.764 0 0 1 2.573-1.055l.009-.001v-.914l-5 1.5v5.39c0 1.13-.522 2.173-1.418 2.92-.79.657-1.875 1.08-3.082 1.08-1.207 0-2.293-.423-3.082-1.08-.896-.747-1.418-1.79-1.418-2.92s.522-2.173 1.418-2.92a4.764 4.764 0 0 1 2.573-1.055l.009-.001V8c0-.481.138-.94.383-1.328l.11-.163c.313-.42.758-.744 1.288-.905Z"/></svg>